<svg width="423" height="513" viewBox="0 0 423 513" fill="none" xmlns="http://www.w3.org/2000/svg">
<path d="M233.811 74.2996C231.137 86.9796 228.434 99.853 225.701 112.92C224.881 116.85 224.321 121.59 223.471 125.23C223.384 125.59 222.977 125.753 222.251 125.72L186.461 12.8396C186.361 12.5263 186.211 12.4963 186.011 12.7496L185.801 13.0196V11.4896C185.801 10.9496 186.004 10.8563 186.411 11.2096L230.411 49.5696C230.733 49.8534 230.94 50.2413 230.991 50.6596L233.811 74.2996Z" fill="#AFCB07"/>
<path d="M222.25 125.5C222.277 125.827 222.107 126.013 221.74 126.06C221.606 126.073 221.473 126.033 221.37 125.95L185.23 96.44L185.8 12.8L186.01 12.53C186.21 12.2767 186.36 12.3067 186.46 12.62L222.25 125.5Z" fill="#49AD31"/>
<path d="M262.93 38.2001C262.877 39.9267 262.97 41.2767 263.21 42.2501C274.477 88.2167 285.73 134.183 296.97 180.15L289.19 180.09L223.1 127.2C223.052 127.161 222.994 127.133 222.933 127.118C222.872 127.104 222.808 127.103 222.747 127.117C222.685 127.13 222.628 127.157 222.578 127.196C222.529 127.234 222.488 127.284 222.46 127.34L195.28 180.05L125.21 179.92C124.784 179.653 124.577 179.223 124.59 178.63C124.604 178.25 124.774 177.837 125.1 177.39C131.84 168.063 138.704 158.83 145.69 149.69C145.95 149.343 146.177 148.787 146.37 148.02L185.23 96.4401L221.37 125.95C221.473 126.033 221.606 126.073 221.74 126.06C222.107 126.013 222.277 125.827 222.25 125.5C222.977 125.533 223.384 125.37 223.47 125.01C224.32 121.37 224.88 116.63 225.7 112.7C228.434 99.6334 231.137 86.7601 233.81 74.0801L261.31 36.8201C261.53 36.5201 261.784 36.4901 262.07 36.7301C262.37 36.9767 262.657 37.4667 262.93 38.2001Z" fill="#8BBE23"/>
<path d="M262.929 38.2L297.309 114.39L302.719 126.23C302.592 126.75 302.629 127.227 302.829 127.66C305.755 134.02 308.595 140.457 311.349 146.97L301.199 180.15H296.969C285.729 134.183 274.475 88.2166 263.209 42.25C262.969 41.2766 262.875 39.9266 262.929 38.2Z" fill="#AFCB07"/>
<path d="M334.829 115.28L312.239 125.1C311.232 125.54 311.279 125.763 312.379 125.77C324.212 125.883 336.169 125.987 348.249 126.08C349.389 126.087 350.039 125.963 350.199 125.71C350.739 125.84 351.109 126.01 351.619 126.01C356.992 126.023 362.369 126.01 367.749 125.97C368.515 125.963 370.052 126.15 372.359 126.53L346.329 141.55L304.669 126.51C304.58 126.477 304.5 126.422 304.438 126.35C304.375 126.279 304.331 126.193 304.309 126.1C304.282 126 304.252 125.897 304.219 125.79L310.089 125.88C310.157 125.881 310.225 125.866 310.287 125.836C310.349 125.806 310.403 125.763 310.444 125.708C310.486 125.654 310.515 125.59 310.528 125.523C310.54 125.456 310.537 125.386 310.519 125.32L305.359 107.76L309.639 108.94C309.972 109.033 310.222 108.927 310.389 108.62L316.189 97.7401C316.227 97.6671 316.283 97.6042 316.35 97.5563C316.417 97.5084 316.495 97.4769 316.576 97.4642C316.658 97.4516 316.741 97.4582 316.82 97.4835C316.898 97.5089 316.97 97.5522 317.029 97.6101L334.829 115.28Z" fill="#AFCB07"/>
<path d="M355.541 106.28L350.201 125.71C350.041 125.963 349.391 126.087 348.251 126.08C336.171 125.987 324.214 125.883 312.381 125.77C311.281 125.763 311.234 125.54 312.241 125.1L334.831 115.28L355.541 106.28Z" fill="#49AD31"/>
<path d="M355.539 106.28C361.273 112.66 367.036 119.057 372.829 125.47C373.116 125.783 372.959 126.137 372.359 126.53C370.053 126.15 368.516 125.963 367.749 125.97C362.369 126.01 356.993 126.023 351.619 126.01C351.109 126.01 350.739 125.84 350.199 125.71L355.539 106.28Z" fill="#8BBE23"/>
<path d="M305.359 107.76L310.519 125.32C310.537 125.386 310.54 125.455 310.527 125.523C310.515 125.59 310.486 125.654 310.444 125.708C310.402 125.762 310.349 125.806 310.287 125.836C310.225 125.866 310.157 125.881 310.089 125.88L304.219 125.79C303.545 125.73 303.045 125.877 302.719 126.23L297.309 114.39L305.359 107.76Z" fill="#49AD31"/>
<path d="M132.032 122.99C131.978 123.303 131.882 123.563 131.742 123.77C131.602 123.99 131.505 124.227 131.452 124.48L120.372 179.82L38.5816 179.73C37.9883 179.73 37.945 179.577 38.4516 179.27L131.482 122.61C131.648 122.51 131.788 122.537 131.902 122.69C131.962 122.77 132.005 122.87 132.032 122.99Z" fill="#49AD31"/>
<path d="M132.031 122.99L146.371 148.02C146.178 148.787 145.951 149.343 145.691 149.69C138.704 158.83 131.841 168.063 125.101 177.39C124.774 177.837 124.604 178.25 124.591 178.63C124.578 179.223 124.784 179.653 125.211 179.92L120.371 179.82L131.451 124.48C131.504 124.227 131.601 123.99 131.741 123.77C131.881 123.563 131.978 123.303 132.031 122.99Z" fill="#AFCB07"/>
<path d="M304.218 125.79C304.252 125.897 304.282 126 304.308 126.1C304.33 126.193 304.374 126.278 304.437 126.35C304.5 126.421 304.579 126.476 304.668 126.51L346.328 141.55L372.398 179.56C372.732 180.047 372.602 180.29 372.008 180.29L307.188 180.21L344.708 142.76C344.948 142.52 344.898 142.417 344.558 142.45C333.325 143.49 322.255 144.997 311.348 146.97C308.595 140.457 305.755 134.02 302.828 127.66C302.628 127.227 302.592 126.75 302.718 126.23C303.045 125.877 303.545 125.73 304.218 125.79Z" fill="#8BBE23"/>
<path d="M289.191 180.09L195.281 180.05L222.461 127.34C222.489 127.284 222.529 127.234 222.579 127.196C222.629 127.157 222.686 127.13 222.748 127.116C222.809 127.103 222.873 127.103 222.934 127.118C222.995 127.132 223.052 127.16 223.101 127.2L289.191 180.09Z" fill="#49AD31"/>
<path d="M307.189 180.21L301.199 180.15L311.349 146.97C322.256 144.997 333.326 143.49 344.559 142.45C344.899 142.417 344.949 142.52 344.709 142.76L307.189 180.21Z" fill="#49AD31"/>
<path d="M137.634 220.335C137.663 222.199 137.325 224.051 136.639 225.785C135.952 227.519 134.931 229.101 133.633 230.44C132.336 231.779 130.787 232.849 129.075 233.59C127.364 234.331 125.523 234.727 123.659 234.756L120.879 234.8C119.015 234.829 117.163 234.491 115.429 233.804C113.695 233.118 112.113 232.097 110.774 230.799C109.435 229.501 108.365 227.952 107.624 226.241C106.884 224.53 106.487 222.689 106.458 220.825L106.408 217.645C106.379 215.78 106.717 213.928 107.403 212.195C108.09 210.461 109.111 208.879 110.409 207.54C111.707 206.201 113.255 205.13 114.967 204.39C116.678 203.649 118.519 203.253 120.383 203.224L123.163 203.18C125.027 203.151 126.879 203.489 128.613 204.175C130.347 204.862 131.929 205.883 133.268 207.181C134.607 208.479 135.677 210.027 136.418 211.739C137.159 213.45 137.555 215.291 137.584 217.155L137.634 220.335ZM121.941 230.4C123.171 230.408 124.39 230.122 125.529 229.556C126.669 228.991 127.707 228.157 128.583 227.104C129.46 226.051 130.158 224.798 130.638 223.417C131.118 222.036 131.37 220.554 131.381 219.055C131.402 216.029 130.436 213.12 128.696 210.968C126.955 208.816 124.583 207.598 122.101 207.58C120.872 207.572 119.652 207.858 118.513 208.424C117.373 208.989 116.336 209.822 115.459 210.876C114.583 211.929 113.884 213.182 113.404 214.563C112.924 215.944 112.672 217.426 112.661 218.925C112.64 221.951 113.606 224.86 115.346 227.012C117.087 229.164 119.459 230.382 121.941 230.4Z" fill="#3EA2DD"/>
<path d="M203.52 220.352C203.573 224.123 202.125 227.76 199.496 230.464C196.867 233.168 193.271 234.716 189.5 234.769L186.72 234.808C182.949 234.86 179.312 233.413 176.608 230.784C173.904 228.154 172.356 224.559 172.303 220.788L172.259 217.628C172.207 213.857 173.654 210.22 176.283 207.516C178.913 204.812 182.508 203.264 186.279 203.211L189.059 203.172C192.83 203.119 196.467 204.567 199.171 207.196C201.875 209.825 203.423 213.421 203.476 217.192L203.52 220.352ZM187.711 230.349C188.935 230.368 190.151 230.092 191.291 229.538C192.43 228.983 193.471 228.16 194.353 227.116C195.235 226.072 195.941 224.828 196.431 223.453C196.921 222.079 197.185 220.602 197.209 219.106C197.232 217.611 197.014 216.126 196.568 214.737C196.121 213.348 195.454 212.082 194.606 211.01C193.757 209.939 192.743 209.084 191.621 208.494C190.5 207.904 189.292 207.591 188.069 207.571C186.845 207.552 185.628 207.828 184.489 208.382C183.349 208.937 182.309 209.76 181.427 210.803C180.545 211.847 179.839 213.092 179.349 214.466C178.859 215.841 178.594 217.318 178.571 218.814C178.547 220.309 178.765 221.794 179.212 223.183C179.658 224.572 180.325 225.838 181.174 226.909C182.022 227.981 183.037 228.836 184.158 229.426C185.28 230.016 186.487 230.329 187.711 230.349Z" fill="#3EA2DD"/>
<path d="M283.183 220.631C283.163 224.392 281.65 227.991 278.977 230.636C276.304 233.282 272.689 234.757 268.929 234.737L266.149 234.722C262.388 234.703 258.789 233.19 256.144 230.517C253.499 227.844 252.023 224.229 252.043 220.468L252.06 217.348C252.079 213.588 253.592 209.989 256.265 207.344C258.938 204.698 262.553 203.223 266.314 203.243L269.094 203.257C272.854 203.277 276.453 204.79 279.098 207.463C281.744 210.136 283.219 213.751 283.199 217.511L283.183 220.631ZM267.501 230.45C268.736 230.46 269.96 230.175 271.106 229.609C272.251 229.043 273.295 228.208 274.177 227.151C275.059 226.095 275.763 224.837 276.247 223.451C276.732 222.065 276.988 220.577 277.001 219.072C277.027 216.033 276.062 213.109 274.318 210.945C272.574 208.78 270.194 207.552 267.701 207.53C266.467 207.52 265.242 207.805 264.096 208.371C262.951 208.937 261.907 209.772 261.025 210.829C260.143 211.885 259.44 213.143 258.955 214.529C258.471 215.915 258.215 217.403 258.202 218.908C258.175 221.947 259.14 224.871 260.884 227.035C262.628 229.2 265.008 230.428 267.501 230.45Z" fill="#086EB6"/>
<path d="M349.082 220.5C349.082 224.263 347.587 227.873 344.926 230.534C342.265 233.195 338.655 234.69 334.892 234.69H332.112C328.348 234.69 324.739 233.195 322.078 230.534C319.417 227.873 317.922 224.263 317.922 220.5V217.42C317.922 213.657 319.417 210.047 322.078 207.386C324.739 204.725 328.348 203.23 332.112 203.23H334.892C338.655 203.23 342.265 204.725 344.926 207.386C347.587 210.047 349.082 213.657 349.082 217.42V220.5ZM333.382 230.46C335.87 230.477 338.264 229.287 340.038 227.152C341.812 225.018 342.82 222.112 342.842 219.075C342.852 217.572 342.62 216.081 342.158 214.689C341.697 213.296 341.014 212.029 340.151 210.96C339.287 209.891 338.259 209.04 337.125 208.457C335.991 207.874 334.774 207.569 333.542 207.56C331.054 207.543 328.66 208.733 326.886 210.868C325.112 213.002 324.103 215.908 324.082 218.944C324.072 220.448 324.304 221.939 324.765 223.331C325.227 224.724 325.909 225.991 326.773 227.06C327.636 228.129 328.665 228.98 329.799 229.563C330.933 230.146 332.15 230.451 333.382 230.46Z" fill="#086EB6"/>
<path d="M85.8813 208.34C85.7613 208.353 85.7013 208.417 85.7013 208.53L85.7313 215.45C85.7313 215.603 85.808 215.673 85.9613 215.66C92.3213 215.15 100.441 215.87 100.801 223.79C101.171 231.83 95.3313 234.29 88.2613 234.06C84.7547 233.953 81.3747 233.94 78.1213 234.02C78.0441 234.022 77.9682 234 77.9031 233.959C77.838 233.918 77.7867 233.858 77.7556 233.787C77.7245 233.716 77.7152 233.638 77.7286 233.562C77.7421 233.486 77.7779 233.416 77.8313 233.36C79.0113 232.167 79.618 230.8 79.6513 229.26C79.758 223.46 79.7913 217.2 79.7513 210.48C79.738 208.173 79.1513 206.19 77.9913 204.53C77.7647 204.203 77.8513 204.037 78.2513 204.03L97.3913 203.81C97.778 203.803 97.988 203.997 98.0213 204.39L98.5613 210.47C98.6213 211.177 98.418 211.263 97.9513 210.73C95.3613 207.76 89.8313 208.08 85.8813 208.34ZM85.7013 220.26L85.7213 229.22C85.7213 229.337 85.7677 229.449 85.8502 229.531C85.9327 229.614 86.0446 229.66 86.1613 229.66L89.9313 229.65C91.1486 229.647 92.315 229.194 93.1739 228.389C94.0328 227.585 94.5139 226.495 94.5113 225.36V224.08C94.5101 223.518 94.3901 222.962 94.1582 222.443C93.9264 221.924 93.5872 221.453 93.16 221.056C92.7329 220.66 92.2261 220.346 91.6687 220.132C91.1113 219.918 90.5141 219.809 89.9113 219.81L86.1413 219.82C86.0246 219.82 85.9127 219.866 85.8302 219.949C85.7477 220.031 85.7013 220.143 85.7013 220.26Z" fill="#3EA2DD"/>
<path d="M144.72 204.39C144.691 204.35 144.673 204.303 144.668 204.254C144.664 204.205 144.673 204.156 144.695 204.111C144.716 204.067 144.75 204.029 144.791 204.003C144.833 203.976 144.881 203.961 144.93 203.96C149.857 203.913 154.247 203.96 158.1 204.1C166.24 204.39 168.9 213.15 165.84 219.25C163.39 224.14 158.16 224.25 153.3 224.18C152.913 224.173 152.697 224.363 152.65 224.75C152.197 228.363 152.747 231.24 154.3 233.38C154.6 233.8 154.49 234.01 153.97 234.01L145.03 234C144.959 233.999 144.89 233.979 144.83 233.942C144.771 233.904 144.723 233.851 144.691 233.788C144.66 233.724 144.647 233.654 144.654 233.583C144.661 233.513 144.687 233.446 144.73 233.39C145.917 231.81 146.513 230.073 146.52 228.18C146.553 221.893 146.53 215.597 146.45 209.29C146.43 207.517 145.853 205.883 144.72 204.39ZM152.56 208.89L152.58 219.23C152.58 219.378 152.639 219.521 152.744 219.626C152.849 219.731 152.991 219.79 153.14 219.79L155.66 219.78C156.959 219.777 158.205 219.273 159.122 218.379C160.039 217.484 160.552 216.272 160.55 215.01V213.07C160.549 212.445 160.421 211.826 160.173 211.249C159.926 210.672 159.564 210.148 159.108 209.707C158.652 209.266 158.111 208.916 157.516 208.678C156.921 208.44 156.283 208.319 155.64 208.32L153.12 208.33C152.971 208.33 152.829 208.389 152.724 208.494C152.619 208.599 152.56 208.741 152.56 208.89Z" fill="#3EA2DD"/>
<path d="M231.69 215.69C236.057 215.303 239.367 215.663 241.62 216.77C245.893 218.863 247.363 222.373 246.03 227.3C244.903 231.44 241.94 233.627 237.14 233.86C232.807 234.073 228.3 234.093 223.62 233.92C223.561 233.919 223.504 233.901 223.456 233.868C223.407 233.835 223.369 233.789 223.347 233.734C223.324 233.68 223.319 233.62 223.33 233.563C223.341 233.505 223.369 233.452 223.41 233.41C224.69 232.09 225.333 230.517 225.34 228.69C225.38 222.417 225.377 216.043 225.33 209.57C225.31 207.68 224.62 205.96 223.5 204.44C223.47 204.398 223.452 204.348 223.448 204.296C223.444 204.244 223.454 204.193 223.476 204.147C223.499 204.101 223.534 204.064 223.577 204.038C223.62 204.012 223.67 203.999 223.72 204L243.05 203.87C243.337 203.87 243.493 204.013 243.52 204.3L244.09 210.71C244.15 211.41 243.973 211.477 243.56 210.91C241.14 207.62 235.54 208.09 231.68 208.35C231.453 208.363 231.34 208.483 231.34 208.71L231.33 215.36C231.33 215.406 231.339 215.452 231.358 215.494C231.376 215.536 231.403 215.574 231.437 215.605C231.471 215.636 231.511 215.659 231.554 215.674C231.598 215.689 231.644 215.694 231.69 215.69ZM231.3 220.25L231.32 229.25C231.32 229.369 231.367 229.484 231.452 229.568C231.536 229.653 231.651 229.7 231.77 229.7L235.54 229.69C236.781 229.687 237.97 229.21 238.846 228.362C239.722 227.514 240.213 226.366 240.21 225.17V224.29C240.209 223.698 240.086 223.112 239.85 222.565C239.614 222.018 239.268 221.522 238.832 221.104C238.397 220.686 237.88 220.355 237.312 220.13C236.743 219.904 236.135 219.789 235.52 219.79L231.75 219.8C231.631 219.8 231.516 219.848 231.432 219.932C231.347 220.016 231.3 220.131 231.3 220.25Z" fill="#086EB6"/>
<path d="M298.23 224.64C297.723 228.34 298.317 231.263 300.01 233.41C300.323 233.81 300.226 234.01 299.72 234.01L290.75 234C290.25 233.993 290.146 233.79 290.44 233.39C291.593 231.83 292.18 229.98 292.2 227.84C292.233 222.233 292.233 216.3 292.2 210.04C292.187 207.94 291.55 206.047 290.29 204.36C290.262 204.321 290.246 204.276 290.243 204.228C290.239 204.181 290.249 204.134 290.271 204.091C290.292 204.049 290.325 204.014 290.366 203.989C290.406 203.964 290.452 203.95 290.5 203.95C294.54 203.923 298.49 203.967 302.35 204.08C308.73 204.26 312.107 207.257 312.48 213.07C312.8 218.183 310.967 221.58 306.98 223.26C304.63 224.25 301.45 224.17 298.85 224.11C298.483 224.103 298.277 224.28 298.23 224.64ZM298.11 208.71L298.15 219.37C298.15 219.425 298.161 219.48 298.182 219.531C298.203 219.582 298.234 219.628 298.273 219.667C298.312 219.706 298.358 219.737 298.409 219.758C298.46 219.779 298.515 219.79 298.57 219.79L301.24 219.78C302.583 219.775 303.868 219.261 304.815 218.352C305.762 217.442 306.292 216.212 306.29 214.93V213.11C306.289 212.474 306.156 211.844 305.899 211.256C305.643 210.669 305.267 210.135 304.795 209.687C304.322 209.238 303.761 208.883 303.144 208.642C302.527 208.4 301.867 208.277 301.2 208.28L298.53 208.29C298.418 208.29 298.312 208.334 298.233 208.413C298.154 208.492 298.11 208.599 298.11 208.71Z" fill="#086EB6"/>
<path d="M54.4615 208.54C54.1215 208.8 54.0682 209.01 54.3015 209.17C57.6215 211.397 60.7648 213.843 63.7315 216.51C64.0848 216.83 64.0982 217.28 63.7715 217.86C59.1515 217.827 54.5548 217.377 49.9815 216.51C49.8015 216.477 49.6882 216.387 49.6415 216.24C49.5882 216.087 49.5048 216.067 49.3915 216.18C49.2982 216.287 49.2115 216.483 49.1315 216.77C48.8248 216.557 48.7448 216.293 48.8915 215.98C49.4715 214.74 50.6748 212.507 52.5015 209.28C52.7215 208.88 52.9848 208.64 53.2915 208.56C53.6382 208.467 54.0282 208.46 54.4615 208.54Z" fill="#57BBEC"/>
<path d="M54.4587 208.54L61.3687 208.6C61.7087 208.6 61.9387 208.76 62.0587 209.08L65.3087 218.02C64.582 217.753 64.0687 217.7 63.7687 217.86C64.0954 217.28 64.082 216.83 63.7287 216.51C60.762 213.843 57.6187 211.397 54.2987 209.17C54.0654 209.01 54.1187 208.8 54.4587 208.54Z" fill="#3EA2DD"/>
<path d="M375.191 208.41C371.558 212.143 367.808 215.033 363.941 217.08L366.881 209.1C367.001 208.78 367.235 208.613 367.581 208.6L375.191 208.41Z" fill="#3EA2DD"/>
<path d="M379.278 216.36L364.338 217.64C363.992 217.667 363.852 217.51 363.918 217.17C363.938 217.063 363.972 216.937 364.018 216.79C363.992 216.883 363.965 216.98 363.938 217.08C367.805 215.033 371.555 212.143 375.188 208.41C376.915 210.01 378.268 212.117 379.248 214.73C379.462 215.317 379.472 215.86 379.278 216.36Z" fill="#1077BC"/>
<path d="M63.7689 217.86C64.0689 217.7 64.5822 217.753 65.3089 218.02C65.2356 218.147 65.1822 218.293 65.1489 218.46C65.1089 218.66 65.0422 218.847 64.9489 219.02L59.9689 227.98C59.9321 228.048 59.8796 228.105 59.8158 228.148C59.752 228.191 59.6787 228.219 59.6023 228.227C59.5258 228.236 59.4483 228.227 59.3764 228.199C59.3044 228.172 59.2401 228.127 59.1889 228.07L49.1289 216.77C49.2089 216.483 49.2956 216.287 49.3889 216.18C49.5022 216.067 49.5856 216.087 49.6389 216.24C49.6856 216.387 49.7989 216.477 49.9789 216.51C54.5522 217.377 59.1489 217.827 63.7689 217.86Z" fill="#1077BC"/>
<path d="M379.279 216.36L379.379 216.83C379.432 217.117 379.359 217.37 379.159 217.59L369.699 228C369.643 228.061 369.574 228.107 369.497 228.136C369.42 228.165 369.338 228.176 369.257 228.167C369.176 228.158 369.099 228.13 369.031 228.086C368.964 228.041 368.908 227.981 368.869 227.91C367.169 224.897 365.486 221.94 363.819 219.04C363.329 218.18 363.579 217.58 364.019 216.79C363.972 216.937 363.939 217.063 363.919 217.17C363.852 217.51 363.992 217.667 364.339 217.64L379.279 216.36Z" fill="#57BBEC"/>
<path d="M88.0105 259.08C125.324 268.893 162.49 278.603 199.51 288.21C199.77 288.277 199.867 288.487 199.8 288.84C160.38 298.367 120.954 307.883 81.5205 317.39C81.2405 317.457 81.1471 317.623 81.2405 317.89C81.3471 318.203 81.5572 318.417 81.8705 318.53L176.69 352.45C177.064 352.583 177.074 352.743 176.72 352.93L115.43 385.05L62.0505 335.63C61.9951 335.579 61.9507 335.516 61.9201 335.447C61.8894 335.378 61.8731 335.303 61.8722 335.227C61.8713 335.152 61.8857 335.076 61.9146 335.006C61.9435 334.936 61.9864 334.873 62.0405 334.82L79.1705 318.37C79.3399 318.206 79.451 317.99 79.4871 317.755C79.5232 317.521 79.4822 317.281 79.3705 317.07L42.7405 249.98C42.7165 249.94 42.7036 249.895 42.7031 249.848C42.7026 249.802 42.7145 249.756 42.7376 249.715C42.7608 249.673 42.7943 249.638 42.8351 249.613C42.8759 249.588 42.9225 249.573 42.9705 249.57C49.5405 249.32 55.4505 250.6 61.2305 253.52C64.0505 254.94 67.0005 256.4 70.0205 257.22C75.9405 258.813 81.9371 259.433 88.0105 259.08Z" fill="#3EA2DD"/>
<path d="M240.582 258.92L233.922 264.93L201.152 288.5C200.505 288.54 200.055 288.653 199.802 288.84C199.868 288.487 199.772 288.277 199.512 288.21C162.492 278.603 125.325 268.893 88.0117 259.08C89.4051 258.647 90.7317 258.307 91.9917 258.06C96.2017 257.22 99.7517 255.68 103.602 253.79C112.642 249.33 122.182 248.34 131.962 250.84C136.752 252.07 140.802 254.93 145.432 256.53C154.238 259.57 163.162 259.88 172.202 257.46C178.082 255.89 183.382 251.83 189.382 250.65C197.462 249.063 204.552 249.243 210.652 251.19C213.158 251.99 216.608 253.497 221.002 255.71C226.155 258.317 232.682 259.387 240.582 258.92Z" fill="#1077BC"/>
<path d="M378.932 257.03L285.072 275.54C285.039 275.553 285.005 275.567 284.972 275.58C284.912 275.613 284.849 275.623 284.782 275.61C268.049 272.197 251.095 268.637 233.922 264.93L240.582 258.92C246.302 258.747 251.269 257.6 255.482 255.48C261.575 252.42 266.209 250.653 269.382 250.18C276.022 249.193 282.192 249.483 287.892 251.05C292.202 252.24 296.042 254.67 300.232 256.27C310.592 260.24 323.322 260.09 333.822 255.1C336.982 253.61 340.282 251.89 343.562 251.02C351.355 248.973 359.175 249.113 367.022 251.44C369.115 252.06 373.085 253.923 378.932 257.03Z" fill="#3EA2DD"/>
<path d="M378.93 257.03L387.26 258.9C387.305 258.909 387.347 258.93 387.381 258.961C387.416 258.991 387.441 259.031 387.455 259.074C387.47 259.118 387.472 259.165 387.462 259.21C387.453 259.255 387.431 259.296 387.4 259.33L341.31 308.69L287.05 301.17C287.017 301.17 286.98 301.17 286.94 301.17L285.07 275.54L378.93 257.03Z" fill="#1077BC"/>
<path d="M233.921 264.93C251.094 268.637 268.047 272.197 284.781 275.61C284.847 275.623 284.911 275.613 284.971 275.58C285.004 275.567 285.037 275.553 285.071 275.54L286.941 301.17L237.691 307.73C236.844 307.843 236.594 308.29 236.941 309.07L263.101 367.54C263.114 367.573 263.114 367.603 263.101 367.63C263.081 367.69 263.047 367.777 263.001 367.89L177.891 352.78L235.881 308.28C236.261 307.987 236.241 307.723 235.821 307.49L201.151 288.5L233.921 264.93Z" fill="#57BBEC"/>
<path d="M201.148 288.5L235.818 307.49C236.238 307.723 236.258 307.987 235.878 308.28L177.888 352.78L180.418 428.22L117.838 423.3C117.708 423.288 117.586 423.231 117.494 423.137C117.402 423.044 117.347 422.921 117.338 422.79L115.428 385.05L176.718 352.93C177.071 352.743 177.061 352.583 176.688 352.45L81.8681 318.53C81.5548 318.417 81.3448 318.203 81.2381 317.89C81.1448 317.623 81.2381 317.457 81.5181 317.39C120.951 307.883 160.378 298.367 199.798 288.84C200.051 288.653 200.501 288.54 201.148 288.5Z" fill="#086EB6"/>
<path d="M286.94 301.17C286.98 301.17 287.017 301.17 287.05 301.17L263.7 367.76C263.26 367.733 263.027 367.777 263 367.89C263.047 367.777 263.08 367.69 263.1 367.63C263.113 367.603 263.113 367.573 263.1 367.54L236.94 309.07C236.593 308.29 236.843 307.843 237.69 307.73L286.94 301.17Z" fill="#3EA2DD"/>
<path d="M287.049 301.17L341.309 308.69C340.929 327.63 340.409 346.56 340.169 365.5C340.163 365.78 340.029 366.043 339.769 366.29L263.699 367.76L287.049 301.17Z" fill="#57BBEC"/>
<path d="M177.891 352.78L263.001 367.89L236.491 499.81C236.446 500.049 236.318 500.265 236.131 500.42C235.864 500.633 235.737 500.987 235.751 501.48L180.421 428.22L177.891 352.78Z" fill="#3EA2DD"/>
<path d="M339.771 366.29L236.381 501.82C236.351 501.858 236.312 501.889 236.269 501.911C236.225 501.933 236.177 501.945 236.128 501.946C236.08 501.947 236.031 501.937 235.987 501.917C235.942 501.897 235.903 501.867 235.871 501.83C235.811 501.75 235.771 501.633 235.751 501.48C235.738 500.987 235.864 500.633 236.131 500.42C236.319 500.265 236.446 500.049 236.491 499.81L263.001 367.89C263.028 367.777 263.261 367.733 263.701 367.76L339.771 366.29Z" fill="#1077BC"/>
</svg>
