<svg width="100" height="100" viewBox="0 0 100 100" fill="none" xmlns="http://www.w3.org/2000/svg">
<g id="Frame 64">
<circle id="Ellipse 2" cx="50" cy="50" r="48.5" fill="#1370B5" stroke="url(#paint0_linear_161_164)" stroke-width="3"/>
<path id="Ellipse 29" d="M42.6237 73.6438C32.4638 70.8509 25 61.5471 25 50.5C25 39.4978 32.4033 30.2247 42.5 27.3906M42.5 27.3906V22L51 26.5L42.5 32V27.3906ZM45 53.5C45.1667 55.5 46.6 59.5 51 59.5M57.3763 26.5C67.5362 29.2929 75 38.5967 75 49.6438C75 60.646 67.5967 69.9191 57.5 72.7532M57.5 72.7532V78.1438L49 73.6438L57.5 68.1438V72.7532ZM51 36.5L41.5 51C39 55.5 43 64 51 64C59 64 63 55.5 60.5 51L51 36.5Z" stroke="white" stroke-width="3" stroke-linecap="round" stroke-linejoin="round"/>
</g>
<defs>
<linearGradient id="paint0_linear_161_164" x1="50" y1="0" x2="50" y2="100" gradientUnits="userSpaceOnUse">
<stop stop-color="white"/>
<stop offset="1" stop-color="white" stop-opacity="0"/>
</linearGradient>
</defs>
</svg>
