<svg width="100" height="100" viewBox="0 0 100 100" fill="none" xmlns="http://www.w3.org/2000/svg">
<g id="Frame 62">
<circle id="Ellipse 5" cx="50" cy="50" r="48.5" fill="#1370B5" stroke="url(#paint0_linear_161_158)" stroke-width="3"/>
<path id="Vector 9" d="M54 30.5H66.5M54 36.5H60.5M54 42H66.5M54 47.5H60.5M44 25C41 25 38.5 27 38.5 30C38.5 32.8 38.5 48.8333 38.5 56.5C36.5 57.5 34 59.8 34 65C34 71.5 39.5 75.5 44 75.5H44.5C49 75.5 54.5 71.5 54.5 65C54.5 59.8 52 57.5 50 56.5V30C50 27 47.5 25 44.5 25H44ZM44 40V58.5C41.5 58.5 38.5 61.0601 38.5 64.8112C38.5 69.5 42 71 44 71H44.5C46.5 71 50 69.5 50 64.8112C50 61.0601 47 58.5 44.5 58.5V40H44Z" stroke="white" stroke-width="3" stroke-linecap="round" stroke-linejoin="round"/>
</g>
<defs>
<linearGradient id="paint0_linear_161_158" x1="50" y1="0" x2="50" y2="100" gradientUnits="userSpaceOnUse">
<stop stop-color="white"/>
<stop offset="1" stop-color="white" stop-opacity="0"/>
</linearGradient>
</defs>
</svg>
