<svg width="100" height="100" viewBox="0 0 100 100" fill="none" xmlns="http://www.w3.org/2000/svg">
<g id="Frame 65">
<circle id="Ellipse 3" cx="50" cy="50" r="48.5" fill="#1370B5" stroke="url(#paint0_linear_161_167)" stroke-width="3"/>
<path id="Vector 11" d="M50 56C50 62 50 74.1 50 74.5V56ZM50 56L42.5 51.5L41.5 56.5M50 56L57.5 51.5L58.5 56.5M41.5 56.5L46.5 59M41.5 56.5C37.6667 56.5 29.9 58.3 29.5 65.5C29.1 72.7 29 74.8333 29 75M41 39.5C40.6667 39.1667 39.8 38.6 39 39C38 39.5 38.6625 41.667 39.5 43C39.9407 43.7015 40.8333 44.3333 41 44.5M58.5 56.5L53.5 59M58.5 56.5C62.3333 56.5 70.1 58.3 70.5 65.5C70.9 72.7 71 74.8333 71 75M59 39.5C59.3333 39.1667 60.2 38.6 61 39C62 39.5 61.3375 41.667 60.5 43C60.0593 43.7015 59.1667 44.3333 59 44.5M39 35C39 31.8405 40.9898 29.0613 44 27.4555M61 35C61 30.0294 56.0751 26 50 26C47.7864 26 45.7256 26.535 44 27.4555M44 27.4555C44.299 28.9595 45.1704 31.4346 46.7637 33.3524M60 36.5C59.5201 36.5686 58.6566 36.6315 57.5 36.6261M46.7637 33.3524C47.8345 34.6413 49.2315 35.6785 51 36C53.59 36.4709 55.845 36.6184 57.5 36.6261M46.7637 33.3524C46.274 34.2264 44.8212 35.8284 42.5 36.3391M41 36.5C41.5344 36.5 42.0346 36.4415 42.5 36.3391M42.5 36.3391V37.5V45.5L48 51H50H52L57.5 45.5V37.5V36.6261" stroke="white" stroke-width="3" stroke-linecap="round" stroke-linejoin="round"/>
</g>
<defs>
<linearGradient id="paint0_linear_161_167" x1="50" y1="0" x2="50" y2="100" gradientUnits="userSpaceOnUse">
<stop stop-color="white"/>
<stop offset="1" stop-color="white" stop-opacity="0"/>
</linearGradient>
</defs>
</svg>
