<svg width="100" height="100" viewBox="0 0 100 100" fill="none" xmlns="http://www.w3.org/2000/svg">
<g id="Frame 61">
<circle id="Ellipse 4" cx="50" cy="50" r="48.5" fill="#1370B5" stroke="url(#paint0_linear_161_161)" stroke-width="3"/>
<path id="Vector 8" d="M49.5 38.5V67M49.5 67L41.5 58.5M49.5 67L57.5 58.5M41.5 71H49.5H57.5M27 32.5C27.5 31.5 28.5 29.5 31.5 29.5C34.5 29.5 36.5 34 40.5 34C44.5 34 46 29 49.5 29C53 29 54.5 34 58.5 34C62.5 34 64.5 29.5 67.5 29.5C70.5 29.5 71.5 31.5 72 32.5" stroke="white" stroke-width="3" stroke-linecap="round" stroke-linejoin="round"/>
</g>
<defs>
<linearGradient id="paint0_linear_161_161" x1="50" y1="0" x2="50" y2="100" gradientUnits="userSpaceOnUse">
<stop stop-color="white"/>
<stop offset="1" stop-color="white" stop-opacity="0"/>
</linearGradient>
</defs>
</svg>
